<svg width="143" height="34" viewBox="0 0 143 34" fill="none" xmlns="http://www.w3.org/2000/svg">
<rect width="34" height="34" rx="6" fill="#A7AACC"/>
<path d="M2 21.5326V15.9816C12.4795 18.6856 16.5792 21.8932 19.3061 31.9816C15.3914 24.8125 11.5505 22.5808 2 21.5326Z" fill="white"/>
<path d="M5.5 11.9816V15.9816C11.0246 16.5387 13.9352 19.8493 17 23.9816C14.4688 17.25 11.1398 13.7341 5.5 11.9816Z" fill="white"/>
<path d="M31.5 14.9816L30.5 6.48157C27.3999 9.27171 18.1034 17.9708 20.3739 30.6947C20.4138 30.9318 20.4604 31.1717 20.5139 31.4143C20.4631 31.173 20.4165 30.9331 20.3739 30.6947C19.1046 23.1377 24.713 18.3751 31.5 14.9816Z" fill="white"/>
<path d="M25.4485 2.29021C19.6564 10.0129 18.5415 19.084 19 28.4816C19.5 19.4816 22.5 8.98161 28.7246 4.98596L25.4485 2.29021Z" fill="white"/>
<path d="M54.0178 23V21.4H57.2338C57.7992 21.4 58.2365 21.224 58.5458 20.872C58.8552 20.52 59.0098 20.1147 59.0098 19.656C59.0098 19.3467 58.9405 19.0587 58.8018 18.792C58.6632 18.5253 58.4605 18.312 58.1938 18.152C57.9272 17.992 57.6072 17.912 57.2338 17.912H54.0178V16.312H56.9618C57.4418 16.312 57.8258 16.1893 58.1138 15.944C58.4018 15.6987 58.5458 15.336 58.5458 14.856C58.5458 14.376 58.4018 14.0133 58.1138 13.768C57.8258 13.5227 57.4418 13.4 56.9618 13.4H54.0178V11.8H57.0098C57.7672 11.8 58.3965 11.9387 58.8978 12.216C59.3992 12.4933 59.7725 12.8507 60.0178 13.288C60.2632 13.7253 60.3858 14.1947 60.3858 14.696C60.3858 15.2827 60.2205 15.8 59.8898 16.248C59.5698 16.696 59.0952 17.0587 58.4658 17.336L58.6098 16.76C59.3138 17.048 59.8632 17.4533 60.2578 17.976C60.6525 18.4987 60.8498 19.112 60.8498 19.816C60.8498 20.392 60.7058 20.92 60.4178 21.4C60.1405 21.88 59.7245 22.2693 59.1698 22.568C58.6258 22.856 57.9538 23 57.1538 23H54.0178ZM52.7538 23V11.8H54.5938V23H52.7538ZM65.987 23.16C65.2403 23.16 64.563 22.984 63.955 22.632C63.347 22.2693 62.8616 21.784 62.499 21.176C62.147 20.568 61.971 19.8907 61.971 19.144C61.971 18.3973 62.147 17.7253 62.499 17.128C62.8616 16.5307 63.347 16.056 63.955 15.704C64.563 15.3413 65.2403 15.16 65.987 15.16C66.7443 15.16 67.427 15.336 68.035 15.688C68.643 16.04 69.123 16.52 69.475 17.128C69.8376 17.7253 70.019 18.3973 70.019 19.144C70.019 19.8907 69.8376 20.568 69.475 21.176C69.123 21.784 68.643 22.2693 68.035 22.632C67.427 22.984 66.7443 23.16 65.987 23.16ZM65.987 21.464C66.4243 21.464 66.8083 21.368 67.139 21.176C67.4803 20.9733 67.7416 20.696 67.923 20.344C68.115 19.992 68.211 19.592 68.211 19.144C68.211 18.696 68.115 18.3013 67.923 17.96C67.731 17.6187 67.4696 17.352 67.139 17.16C66.8083 16.9573 66.4243 16.856 65.987 16.856C65.5603 16.856 65.1763 16.9573 64.835 17.16C64.5043 17.352 64.243 17.6187 64.051 17.96C63.8696 18.3013 63.779 18.696 63.779 19.144C63.779 19.592 63.8696 19.992 64.051 20.344C64.243 20.696 64.5043 20.9733 64.835 21.176C65.1763 21.368 65.5603 21.464 65.987 21.464ZM75.0026 23.16C74.2559 23.16 73.5786 22.984 72.9706 22.632C72.3626 22.2693 71.8773 21.784 71.5146 21.176C71.1626 20.568 70.9866 19.8907 70.9866 19.144C70.9866 18.3973 71.1626 17.7253 71.5146 17.128C71.8773 16.5307 72.3626 16.056 72.9706 15.704C73.5786 15.3413 74.2559 15.16 75.0026 15.16C75.7599 15.16 76.4426 15.336 77.0506 15.688C77.6586 16.04 78.1386 16.52 78.4906 17.128C78.8533 17.7253 79.0346 18.3973 79.0346 19.144C79.0346 19.8907 78.8533 20.568 78.4906 21.176C78.1386 21.784 77.6586 22.2693 77.0506 22.632C76.4426 22.984 75.7599 23.16 75.0026 23.16ZM75.0026 21.464C75.4399 21.464 75.8239 21.368 76.1546 21.176C76.4959 20.9733 76.7573 20.696 76.9386 20.344C77.1306 19.992 77.2266 19.592 77.2266 19.144C77.2266 18.696 77.1306 18.3013 76.9386 17.96C76.7466 17.6187 76.4853 17.352 76.1546 17.16C75.8239 16.9573 75.4399 16.856 75.0026 16.856C74.5759 16.856 74.1919 16.9573 73.8506 17.16C73.5199 17.352 73.2586 17.6187 73.0666 17.96C72.8853 18.3013 72.7946 18.696 72.7946 19.144C72.7946 19.592 72.8853 19.992 73.0666 20.344C73.2586 20.696 73.5199 20.9733 73.8506 21.176C74.1919 21.368 74.5759 21.464 75.0026 21.464ZM85.3782 23L82.1302 19.08L85.3622 15.32H87.4582L83.7462 19.544L83.8262 18.536L87.6182 23H85.3782ZM80.4982 23V11.48H82.2582V23H80.4982ZM88.9101 23V11.8H90.1901L94.8461 19.464H94.0141L98.6701 11.8H99.9501V23H98.1101V15.032L98.5261 15.144L95.0701 20.824H93.7901L90.3341 15.144L90.7501 15.032V23H88.9101ZM104.619 23.08L101.339 15.32H103.275L105.515 21.016H104.955L107.323 15.32H109.275L105.707 23.08H104.619ZM102.331 26.2L104.715 21.288L105.707 23.08L104.283 26.2H102.331ZM113.78 23.16C112.895 23.16 112.143 23 111.524 22.68C110.905 22.36 110.351 21.8907 109.86 21.272L111.108 20.024C111.417 20.472 111.785 20.824 112.212 21.08C112.639 21.3253 113.183 21.448 113.844 21.448C114.463 21.448 114.953 21.32 115.316 21.064C115.689 20.808 115.876 20.456 115.876 20.008C115.876 19.6347 115.78 19.3307 115.588 19.096C115.396 18.8613 115.14 18.6693 114.82 18.52C114.511 18.36 114.164 18.2213 113.78 18.104C113.407 17.976 113.028 17.8373 112.644 17.688C112.271 17.528 111.924 17.3307 111.604 17.096C111.295 16.8613 111.044 16.5573 110.852 16.184C110.66 15.8107 110.564 15.336 110.564 14.76C110.564 14.0987 110.724 13.5387 111.044 13.08C111.375 12.6107 111.817 12.2533 112.372 12.008C112.927 11.7627 113.545 11.64 114.228 11.64C114.964 11.64 115.62 11.784 116.196 12.072C116.783 12.36 117.257 12.728 117.62 13.176L116.372 14.424C116.052 14.0613 115.716 13.7947 115.364 13.624C115.023 13.4427 114.628 13.352 114.18 13.352C113.625 13.352 113.188 13.464 112.868 13.688C112.559 13.912 112.404 14.2267 112.404 14.632C112.404 14.9733 112.5 15.2507 112.692 15.464C112.884 15.6667 113.135 15.8427 113.444 15.992C113.764 16.1307 114.111 16.264 114.484 16.392C114.868 16.52 115.247 16.664 115.62 16.824C116.004 16.984 116.351 17.192 116.66 17.448C116.98 17.6933 117.236 18.0133 117.428 18.408C117.62 18.8027 117.716 19.2987 117.716 19.896C117.716 20.8987 117.359 21.6933 116.644 22.28C115.94 22.8667 114.985 23.16 113.78 23.16ZM120.479 23V12.12H122.239V23H120.479ZM118.639 16.92V15.32H124.079V16.92H118.639ZM128.355 23.16C127.662 23.16 127.032 22.984 126.467 22.632C125.912 22.28 125.47 21.8053 125.139 21.208C124.819 20.6 124.659 19.9227 124.659 19.176C124.659 18.4187 124.819 17.7413 125.139 17.144C125.47 16.536 125.912 16.056 126.467 15.704C127.032 15.3413 127.662 15.16 128.355 15.16C128.942 15.16 129.459 15.288 129.907 15.544C130.366 15.7893 130.728 16.1307 130.995 16.568C131.262 17.0053 131.395 17.5013 131.395 18.056V20.264C131.395 20.8187 131.262 21.3147 130.995 21.752C130.739 22.1893 130.382 22.536 129.923 22.792C129.464 23.0373 128.942 23.16 128.355 23.16ZM128.643 21.496C129.294 21.496 129.816 21.2773 130.211 20.84C130.616 20.4027 130.819 19.8427 130.819 19.16C130.819 18.7013 130.728 18.296 130.547 17.944C130.366 17.592 130.11 17.32 129.779 17.128C129.459 16.9253 129.08 16.824 128.643 16.824C128.216 16.824 127.838 16.9253 127.507 17.128C127.187 17.32 126.931 17.592 126.739 17.944C126.558 18.296 126.467 18.7013 126.467 19.16C126.467 19.6187 126.558 20.024 126.739 20.376C126.931 20.728 127.187 21.0053 127.507 21.208C127.838 21.4 128.216 21.496 128.643 21.496ZM130.707 23V20.936L131.011 19.064L130.707 17.208V15.32H132.467V23H130.707ZM136.9 23.08L133.62 15.32H135.556L137.796 21.016H137.236L139.604 15.32H141.556L137.988 23.08H136.9ZM134.612 26.2L136.996 21.288L137.988 23.08L136.564 26.2H134.612Z" fill="white"/>
</svg>
